# xmcd
#
# Track frame offsets:
#	183
#	12558
#	25778
#	41805
#	55665
#	67600
#	80288
#	92745
#	104243
#	115208
#	126758
#	138198
#	147135
#	160883
#
# Disc length: 2313
#
# Revision: 2
# Processed by: cddbd v1.5.1PL0 Copyright (c) Steve Scherf et al.
# Submitted via: audiograbber 1.83.01
# Normalized: r1:DSETVAR1
#
DISCID=b609070e
DTITLE=Various Artist - Wir wünschen Euch einfrohes Fest
DYEAR=1992
DGENRE=Country
TTITLE0=Truck Stop - Wir wünschen Euch ein frohes Fest
TTITLE1=Johnny Hill - O du fröhliche
TTITLE2=Tom Astor - Frieden - bleibt ein Weihnachtstraum
TTITLE3=Johnny Hill - Sußer die Glocken nie klingen
TTITLE4=Die Truck-Tors - In der Nacht von Bethlehem
TTITLE5=Tom Astor - Weihnachten zu Hause sein
TTITLE6=Truck Stop - Jingle Bells
TTITLE7=Johnny Hill - O Tannenbaum
TTITLE8=Die Truck-Tors - Weihnachtssterne
TTITLE9=Tom Astor und der Friedeburger Kinderchor - Mein Daddy fährt fürs Christkind die Geschenke
TTITLE10=Die Truck-Tors - Weihnachten mit den Cowboys
TTITLE11=Johnny Hill - Heilige Nacht
TTITLE12=Die Truck-Tors - Cowboy Chrismas Bell
TTITLE13=Johnny Hill - Weihnachten auf hoher See
EXTD=
EXTT0=
EXTT1=
EXTT2=
EXTT3=
EXTT4=
EXTT5=
EXTT6=
EXTT7=
EXTT8=
EXTT9=
EXTT10=
EXTT11=
EXTT12=
EXTT13=
PLAYORDER=
